<svg width="64" height="69" viewBox="0 0 64 69" fill="none" xmlns="http://www.w3.org/2000/svg">
    <g filter="url(#filter0_d_12980_83048)">
        <path d="M5.51936 6.76525L8.78188 4.02122C10.5584 2.527 11.4467 1.77989 12.5238 1.38994C13.6008 1 14.7761 1 17.1267 1H58.1768C59.9791 1 60.8802 1 61.4401 1.54355C62 2.0871 62 2.96192 62 4.71158V5.20539C62 7.4297 62 8.54186 61.5394 9.52109C61.0787 10.5003 60.213 11.2286 58.4814 12.6853L39.5782 28.5876C37.8467 30.0443 36.9809 30.7726 36.5203 31.7519C36.0596 32.7311 36.0596 33.8432 36.0596 36.0676V53.8613C36.0596 54.1245 36.0596 54.2561 36.1026 54.328C36.1705 54.4417 36.305 54.5013 36.4379 54.4767C36.5221 54.4611 36.6245 54.3749 36.8294 54.2026C37.6227 53.5352 38.0194 53.2015 38.3282 52.815C38.8122 52.2092 39.1446 51.5026 39.2992 50.7507C39.3979 50.2711 39.3979 49.7615 39.3979 48.7424V37.5477C39.3979 35.3234 39.3979 34.2112 39.8585 33.232C40.3191 32.2528 41.1849 31.5244 42.9164 30.0678L60.9455 14.9008C61.4002 14.5183 61.6275 14.327 61.8138 14.4096C62 14.4922 62 14.7842 62 15.3683V21.0353C62 23.2596 62 24.3717 61.5394 25.351C61.0787 26.3302 60.213 27.0585 58.4814 28.5152L51.9007 34.0512C50.1692 35.5079 49.3034 36.2362 48.8428 37.2155C48.3821 38.1947 48.3821 39.3068 48.3821 41.5311V51.5055C48.3821 53.7298 48.3821 54.8419 47.9215 55.8211C47.4609 56.8004 46.5951 57.5287 44.8636 58.9854L38.0623 64.7069C37.0936 65.5219 36.6092 65.9293 36.015 65.9918C35.4208 66.0543 34.8578 65.757 33.7318 65.1625L21.4109 58.6565C19.7891 57.8001 18.9782 57.3719 18.5308 56.6413C18.0835 55.9108 18.0835 55.0146 18.0835 53.2223V28.0972C18.0835 25.8729 18.0835 24.7608 18.5442 23.7815C19.0048 22.8023 19.8706 22.074 21.6021 20.6173L33.531 10.5821C33.8383 10.3235 33.992 10.1943 34.0101 10.0825C34.0273 9.97575 33.9859 9.86801 33.9009 9.79829C33.8118 9.7253 33.6085 9.7253 33.2018 9.7253C31.8467 9.7253 31.1691 9.7253 30.5236 9.85644C29.8956 9.984 29.2911 10.2029 28.7304 10.5057C28.1541 10.817 27.6421 11.2478 26.6179 12.1094L18.3377 19.0752C16.561 20.5698 15.6726 21.3171 14.5955 21.7072C13.5183 22.0972 12.3428 22.0972 9.99188 22.0972H5.82319C4.02092 22.0972 3.11979 22.0972 2.55989 21.5537C2 21.0101 2 20.1353 2 18.3857V14.2458C2 12.0212 2 10.9089 2.46074 9.92959C2.92148 8.95027 3.78744 8.22193 5.51936 6.76525Z" fill="white"/>
    </g>
    <defs>
        <filter id="filter0_d_12980_83048" x="0" y="0" width="64" height="69" filterUnits="userSpaceOnUse" color-interpolation-filters="sRGB">
            <feFlood flood-opacity="0" result="BackgroundImageFix"/>
            <feColorMatrix in="SourceAlpha" type="matrix" values="0 0 0 0 0 0 0 0 0 0 0 0 0 0 0 0 0 0 127 0" result="hardAlpha"/>
            <feOffset dy="1"/>
            <feGaussianBlur stdDeviation="1"/>
            <feColorMatrix type="matrix" values="0 0 0 0 0.0392157 0 0 0 0 0.0509804 0 0 0 0 0.0705882 0 0 0 0.05 0"/>
            <feBlend mode="normal" in2="BackgroundImageFix" result="effect1_dropShadow_12980_83048"/>
            <feBlend mode="normal" in="SourceGraphic" in2="effect1_dropShadow_12980_83048" result="shape"/>
        </filter>
    </defs>
</svg>
