<svg width="461" height="128" viewBox="0 0 461 128" fill="none" xmlns="http://www.w3.org/2000/svg">
    <g clip-path="url(#clip0_12965_29389)">
        <path d="M7.50832 11.3531L13.8893 5.94948C17.364 3.00701 19.1013 1.53578 21.2079 0.767888C23.3144 0 25.6131 0 30.2104 0H110.498C114.023 0 115.786 0 116.881 1.07037C117.976 2.14074 117.976 3.86348 117.976 7.30895V8.28139C117.976 12.6616 117.976 14.8517 117.075 16.78C116.174 18.7083 114.481 20.1426 111.094 23.011L74.1222 54.3264C70.7356 57.1949 69.0423 58.6292 68.1413 60.5575C67.2404 62.4858 67.2404 64.6759 67.2404 69.0561V104.096C67.2404 104.614 67.2404 104.873 67.3245 105.015C67.4573 105.239 67.7203 105.356 67.9803 105.308C68.145 105.277 68.3453 105.108 68.7459 104.768C70.2976 103.454 71.0734 102.797 71.6774 102.036C72.624 100.843 73.2742 99.4512 73.5766 97.9707C73.7695 97.0261 73.7695 96.0227 73.7695 94.0158V71.9708C73.7695 67.5906 73.7695 65.4005 74.6704 63.4722C75.5713 61.5439 77.2646 60.1096 80.6513 57.2411L115.913 27.3738C116.803 26.6206 117.247 26.244 117.612 26.4066C117.976 26.5692 117.976 27.1443 117.976 28.2944V39.4541C117.976 43.8342 117.976 46.0243 117.075 47.9527C116.174 49.881 114.481 51.3152 111.094 54.1837L98.2231 65.0855C94.8365 67.954 93.1432 69.3882 92.2423 71.3166C91.3413 73.2449 91.3413 75.435 91.3413 79.8152V99.4569C91.3413 103.837 91.3413 106.027 90.4404 107.955C89.5395 109.884 87.8461 111.318 84.4596 114.187L71.1573 125.454C69.2627 127.058 68.3154 127.861 67.1531 127.984C65.9909 128.107 64.8897 127.522 62.6875 126.351L38.5897 113.539C35.4177 111.852 33.8317 111.009 32.9568 109.571C32.0819 108.132 32.0819 106.367 32.0819 102.838V53.3607C32.0819 48.9805 32.0819 46.7905 32.9828 44.8621C33.8837 42.9338 35.5771 41.4995 38.9636 38.6311L62.2948 18.8694C62.8959 18.3602 63.1965 18.1056 63.2318 17.8855C63.2655 17.6753 63.1845 17.4632 63.0182 17.3259C62.8441 17.1821 62.4463 17.1821 61.6509 17.1821C59.0005 17.1821 57.6752 17.1821 56.4127 17.4404C55.1845 17.6916 54.0021 18.1226 52.9056 18.719C51.7785 19.332 50.7769 20.1803 48.7739 21.8769L32.579 35.5942C29.1041 38.5374 27.3666 40.0091 25.2598 40.7772C23.153 41.5453 20.854 41.5453 16.2559 41.5453H8.10258C4.57761 41.5453 2.81513 41.5453 1.72007 40.4749C0.625 39.4046 0.625 37.6818 0.625 34.2364V26.0841C0.625 21.7033 0.625 19.513 1.52614 17.5844C2.42728 15.6559 4.12097 14.2216 7.50832 11.3531Z" fill="white"/>
        <path d="M213.817 53.3816C213.817 55.9089 213.817 57.1726 214.325 58.2852C214.832 59.3977 215.787 60.2251 217.695 61.8797L238.34 79.7778V47.2216H246.833V80.7499C246.833 84.9621 246.833 87.0683 245.987 88.9225C245.141 90.7768 243.55 92.1557 240.369 94.9135L221.894 110.931H208.923L235.114 88.2251L211.788 68.0029C208.607 65.2451 207.016 63.8662 206.17 62.0119C205.324 60.1577 205.324 58.0515 205.324 53.8393V47.2216H213.817V53.3816Z" fill="white"/>
        <path fill-rule="evenodd" clip-rule="evenodd" d="M292.515 60.1517C295.696 62.9095 297.287 64.2883 298.133 66.1426C298.979 67.9969 298.979 70.103 298.979 74.3153V89.3095H265.943V110.931H257.45V47.2216H269.224C273.367 47.2216 275.438 47.2216 277.337 47.93C279.235 48.6385 280.801 49.9958 283.932 52.7106L292.515 60.1517ZM265.943 80.8088H290.466V74.7559C290.466 72.2285 290.466 70.9649 289.959 69.8523C289.451 68.7398 288.497 67.9124 286.588 66.2578L278.657 59.3817C276.569 57.5719 275.525 56.667 274.26 56.1947C272.994 55.7224 271.613 55.7224 268.852 55.7224H265.943V80.8088Z" fill="white"/>
        <path d="M316.983 89.3095H308.49L308.491 46.3957C308.502 46.4019 310.167 47.2029 312.737 47.2216C315.221 47.2029 316.983 46.3958 316.983 46.3958V89.3095Z" fill="white"/>
        <path d="M366.911 63.8332C370.092 66.591 371.683 67.9698 372.529 69.8241C373.375 71.6784 373.375 73.7845 373.375 77.9967V89.3095H364.862V78.4372C364.862 75.9099 364.862 74.6462 364.355 73.5336C363.847 72.4211 362.893 71.5937 360.984 69.9391L348.806 59.3817C346.719 57.5719 345.675 56.667 344.409 56.1947C343.144 55.7224 341.763 55.7224 339.001 55.7224H336.092V89.3095H327.599V47.2216H339.374C343.516 47.2216 345.588 47.2216 347.486 47.93C349.384 48.6385 350.95 49.9958 354.081 52.7106L366.911 63.8332Z" fill="white"/>
        <path d="M390.238 25.6001V64.0152L409.609 47.2216H422.579L399.888 66.8936L425.744 89.3095H412.774L395.795 74.5899C394.996 73.8975 394.597 73.5513 394.154 73.2907C393.59 72.9587 392.972 72.7281 392.328 72.6092C391.823 72.5158 391.294 72.5158 390.238 72.5158V89.3095H381.745V25.6001H390.238Z" fill="white"/>
        <path d="M213.816 34.1007H189.701V89.3086H181.208V34.1007H157.093V25.6001H213.816V34.1007Z" fill="white"/>
        <path d="M312.736 31.4445C315.195 31.4445 317.189 33.4397 317.189 35.9011C317.189 38.3625 315.195 40.3579 312.736 40.3579C310.277 40.3579 308.284 38.3625 308.284 35.9011C308.284 33.4398 310.277 31.4445 312.736 31.4445Z" fill="white"/>
    </g>
    <defs>
        <clipPath id="clip0_12965_29389">
            <rect width="460" height="128" fill="white" transform="translate(0.625)"/>
        </clipPath>
    </defs>
</svg>
