<svg width="460" height="128" viewBox="0 0 460 128" fill="none" xmlns="http://www.w3.org/2000/svg">
    <g clip-path="url(#clip0_12965_29341)">
        <path d="M6.88332 11.3531L13.2643 5.94948C16.739 3.00701 18.4763 1.53578 20.5829 0.767888C22.6894 0 24.9881 0 29.5854 0H109.873C113.398 0 115.161 0 116.256 1.07037C117.351 2.14074 117.351 3.86348 117.351 7.30895V8.28139C117.351 12.6616 117.351 14.8517 116.45 16.78C115.549 18.7083 113.856 20.1426 110.469 23.011L73.4972 54.3264C70.1106 57.1949 68.4173 58.6292 67.5163 60.5575C66.6154 62.4858 66.6154 64.6759 66.6154 69.0561V104.096C66.6154 104.614 66.6154 104.873 66.6995 105.015C66.8323 105.239 67.0953 105.356 67.3553 105.308C67.52 105.277 67.7203 105.108 68.1209 104.768C69.6726 103.454 70.4484 102.797 71.0524 102.036C71.999 100.843 72.6492 99.4512 72.9516 97.9707C73.1445 97.0261 73.1445 96.0227 73.1445 94.0158V71.9708C73.1445 67.5906 73.1445 65.4005 74.0454 63.4722C74.9463 61.5439 76.6396 60.1096 80.0263 57.2411L115.288 27.3738C116.178 26.6206 116.622 26.244 116.987 26.4066C117.351 26.5692 117.351 27.1443 117.351 28.2944V39.4541C117.351 43.8342 117.351 46.0243 116.45 47.9527C115.549 49.881 113.856 51.3152 110.469 54.1837L97.5981 65.0855C94.2115 67.954 92.5182 69.3882 91.6173 71.3166C90.7163 73.2449 90.7163 75.435 90.7163 79.8152V99.4569C90.7163 103.837 90.7163 106.027 89.8154 107.955C88.9145 109.884 87.2211 111.318 83.8346 114.187L70.5323 125.454C68.6377 127.058 67.6904 127.861 66.5281 127.984C65.3659 128.107 64.2647 127.522 62.0625 126.351L37.9647 113.539C34.7927 111.852 33.2067 111.009 32.3318 109.571C31.4569 108.132 31.4569 106.367 31.4569 102.838V53.3607C31.4569 48.9805 31.4569 46.7905 32.3578 44.8621C33.2587 42.9338 34.9521 41.4995 38.3386 38.6311L61.6698 18.8694C62.2709 18.3602 62.5715 18.1056 62.6068 17.8855C62.6405 17.6753 62.5595 17.4632 62.3932 17.3259C62.2191 17.1821 61.8213 17.1821 61.0259 17.1821C58.3755 17.1821 57.0502 17.1821 55.7877 17.4404C54.5595 17.6916 53.3771 18.1226 52.2806 18.719C51.1535 19.332 50.1519 20.1803 48.1489 21.8769L31.954 35.5942C28.4791 38.5374 26.7416 40.0091 24.6348 40.7772C22.528 41.5453 20.229 41.5453 15.6309 41.5453H7.47758C3.95261 41.5453 2.19013 41.5453 1.09507 40.4749C0 39.4046 0 37.6818 0 34.2364V26.0841C0 21.7033 0 19.513 0.901139 17.5844C1.80228 15.6559 3.49597 14.2216 6.88332 11.3531Z" fill="url(#paint0_radial_12965_29341)"/>
        <path d="M213.192 53.3816C213.192 55.9089 213.192 57.1726 213.7 58.2852C214.207 59.3977 215.162 60.2251 217.07 61.8797L237.715 79.7778V47.2216H246.208V80.7499C246.208 84.9621 246.208 87.0683 245.362 88.9225C244.516 90.7768 242.925 92.1557 239.744 94.9135L221.269 110.931H208.298L234.489 88.2251L211.163 68.0029C207.982 65.2451 206.391 63.8662 205.545 62.0119C204.699 60.1577 204.699 58.0515 204.699 53.8393V47.2216H213.192V53.3816Z" fill="url(#paint1_radial_12965_29341)"/>
        <path fill-rule="evenodd" clip-rule="evenodd" d="M291.89 60.1517C295.071 62.9095 296.662 64.2883 297.508 66.1426C298.354 67.9969 298.354 70.103 298.354 74.3153V89.3095H265.318V110.931H256.825V47.2216H268.599C272.742 47.2216 274.813 47.2216 276.712 47.93C278.61 48.6385 280.176 49.9958 283.307 52.7106L291.89 60.1517ZM265.318 80.8088H289.841V74.7559C289.841 72.2285 289.841 70.9649 289.334 69.8523C288.826 68.7398 287.872 67.9124 285.963 66.2578L278.032 59.3817C275.944 57.5719 274.9 56.667 273.635 56.1947C272.369 55.7224 270.988 55.7224 268.227 55.7224H265.318V80.8088Z" fill="url(#paint2_radial_12965_29341)"/>
        <path d="M316.358 89.3095H307.865L307.866 46.3957C307.877 46.4019 309.542 47.2029 312.112 47.2216C314.596 47.2029 316.358 46.3958 316.358 46.3958V89.3095Z" fill="url(#paint3_radial_12965_29341)"/>
        <path d="M366.286 63.8332C369.467 66.591 371.058 67.9698 371.904 69.8241C372.75 71.6784 372.75 73.7845 372.75 77.9967V89.3095H364.237V78.4372C364.237 75.9099 364.237 74.6462 363.73 73.5336C363.222 72.4211 362.268 71.5937 360.359 69.9391L348.181 59.3817C346.094 57.5719 345.05 56.667 343.784 56.1947C342.519 55.7224 341.138 55.7224 338.376 55.7224H335.467V89.3095H326.974V47.2216H338.749C342.891 47.2216 344.963 47.2216 346.861 47.93C348.759 48.6385 350.325 49.9958 353.456 52.7106L366.286 63.8332Z" fill="url(#paint4_radial_12965_29341)"/>
        <path d="M389.613 25.6001V64.0152L408.984 47.2216H421.954L399.263 66.8936L425.119 89.3095H412.149L395.17 74.5899C394.371 73.8975 393.972 73.5513 393.529 73.2907C392.965 72.9587 392.347 72.7281 391.703 72.6092C391.198 72.5158 390.669 72.5158 389.613 72.5158V89.3095H381.12V25.6001H389.613Z" fill="url(#paint5_radial_12965_29341)"/>
        <path d="M213.191 34.1007H189.076V89.3086H180.583V34.1007H156.468V25.6001H213.191V34.1007Z" fill="url(#paint6_radial_12965_29341)"/>
        <path d="M312.111 31.4445C314.57 31.4445 316.564 33.4397 316.564 35.9011C316.564 38.3625 314.57 40.3579 312.111 40.3579C309.652 40.3579 307.659 38.3625 307.659 35.9011C307.659 33.4398 309.652 31.4445 312.111 31.4445Z" fill="url(#paint7_radial_12965_29341)"/>
    </g>
    <defs>
        <radialGradient id="paint0_radial_12965_29341" cx="0" cy="0" r="1" gradientTransform="matrix(114.656 -83.7785 -95.8383 -126.319 2.14642 83.9068)" gradientUnits="userSpaceOnUse">
            <stop stop-color="#FD6F8E"/>
            <stop offset="0.4" stop-color="#DE21A6"/>
            <stop offset="0.802164" stop-color="#F63CA5"/>
            <stop offset="1" stop-color="#FD6F8E"/>
        </radialGradient>
        <radialGradient id="paint1_radial_12965_29341" cx="0" cy="0" r="1" gradientUnits="userSpaceOnUse" gradientTransform="translate(163.226 106.209) scale(308.979 98.1398)">
            <stop stop-color="#FE86D6"/>
            <stop offset="0.1933" stop-color="#E250B1"/>
            <stop offset="0.3834" stop-color="#DE21A6"/>
            <stop offset="0.54" stop-color="#D5209F"/>
            <stop offset="0.7735" stop-color="#F5299C"/>
            <stop offset="1" stop-color="#FD6F8E"/>
        </radialGradient>
        <radialGradient id="paint2_radial_12965_29341" cx="0" cy="0" r="1" gradientUnits="userSpaceOnUse" gradientTransform="translate(163.226 106.209) scale(308.979 98.1398)">
            <stop stop-color="#FE86D6"/>
            <stop offset="0.1933" stop-color="#E250B1"/>
            <stop offset="0.3834" stop-color="#DE21A6"/>
            <stop offset="0.54" stop-color="#D5209F"/>
            <stop offset="0.7735" stop-color="#F5299C"/>
            <stop offset="1" stop-color="#FD6F8E"/>
        </radialGradient>
        <radialGradient id="paint3_radial_12965_29341" cx="0" cy="0" r="1" gradientUnits="userSpaceOnUse" gradientTransform="translate(163.226 106.209) scale(308.979 98.1398)">
            <stop stop-color="#FE86D6"/>
            <stop offset="0.1933" stop-color="#E250B1"/>
            <stop offset="0.3834" stop-color="#DE21A6"/>
            <stop offset="0.54" stop-color="#D5209F"/>
            <stop offset="0.7735" stop-color="#F5299C"/>
            <stop offset="1" stop-color="#FD6F8E"/>
        </radialGradient>
        <radialGradient id="paint4_radial_12965_29341" cx="0" cy="0" r="1" gradientUnits="userSpaceOnUse" gradientTransform="translate(163.226 106.209) scale(308.979 98.1398)">
            <stop stop-color="#FE86D6"/>
            <stop offset="0.1933" stop-color="#E250B1"/>
            <stop offset="0.3834" stop-color="#DE21A6"/>
            <stop offset="0.54" stop-color="#D5209F"/>
            <stop offset="0.7735" stop-color="#F5299C"/>
            <stop offset="1" stop-color="#FD6F8E"/>
        </radialGradient>
        <radialGradient id="paint5_radial_12965_29341" cx="0" cy="0" r="1" gradientUnits="userSpaceOnUse" gradientTransform="translate(163.226 106.209) scale(308.979 98.1398)">
            <stop stop-color="#FE86D6"/>
            <stop offset="0.1933" stop-color="#E250B1"/>
            <stop offset="0.3834" stop-color="#DE21A6"/>
            <stop offset="0.54" stop-color="#D5209F"/>
            <stop offset="0.7735" stop-color="#F5299C"/>
            <stop offset="1" stop-color="#FD6F8E"/>
        </radialGradient>
        <radialGradient id="paint6_radial_12965_29341" cx="0" cy="0" r="1" gradientUnits="userSpaceOnUse" gradientTransform="translate(163.226 106.209) scale(308.979 98.1398)">
            <stop stop-color="#FE86D6"/>
            <stop offset="0.1933" stop-color="#E250B1"/>
            <stop offset="0.3834" stop-color="#DE21A6"/>
            <stop offset="0.54" stop-color="#D5209F"/>
            <stop offset="0.7735" stop-color="#F5299C"/>
            <stop offset="1" stop-color="#FD6F8E"/>
        </radialGradient>
        <radialGradient id="paint7_radial_12965_29341" cx="0" cy="0" r="1" gradientUnits="userSpaceOnUse" gradientTransform="translate(163.226 106.209) scale(308.979 98.1398)">
            <stop stop-color="#FE86D6"/>
            <stop offset="0.1933" stop-color="#E250B1"/>
            <stop offset="0.3834" stop-color="#DE21A6"/>
            <stop offset="0.54" stop-color="#D5209F"/>
            <stop offset="0.7735" stop-color="#F5299C"/>
            <stop offset="1" stop-color="#FD6F8E"/>
        </radialGradient>
        <clipPath id="clip0_12965_29341">
            <rect width="460" height="128" fill="white"/>
        </clipPath>
    </defs>
</svg>
