<svg width="60" height="65" viewBox="0 0 60 65" fill="none" xmlns="http://www.w3.org/2000/svg">
    <path d="M3.51936 5.76525L6.78188 3.02122C8.55844 1.527 9.44672 0.779886 10.5238 0.389943C11.6008 0 12.7761 0 15.1267 0H56.1768C57.9791 0 58.8802 0 59.4401 0.543548C60 1.0871 60 1.96192 60 3.71158V4.20539C60 6.4297 60 7.54186 59.5394 8.52109C59.0787 9.50032 58.213 10.2286 56.4814 11.6853L37.5782 27.5876C35.8467 29.0443 34.9809 29.7726 34.5203 30.7519C34.0596 31.7311 34.0596 32.8432 34.0596 35.0676V52.8613C34.0596 53.1245 34.0596 53.2561 34.1026 53.328C34.1705 53.4417 34.305 53.5013 34.4379 53.4767C34.5221 53.4611 34.6245 53.3749 34.8294 53.2026C35.6227 52.5352 36.0194 52.2015 36.3282 51.815C36.8122 51.2092 37.1446 50.5026 37.2992 49.7507C37.3979 49.2711 37.3979 48.7615 37.3979 47.7424V36.5477C37.3979 34.3234 37.3979 33.2112 37.8585 32.232C38.3191 31.2528 39.1849 30.5244 40.9164 29.0678L58.9455 13.9008C59.4002 13.5183 59.6275 13.327 59.8138 13.4096C60 13.4922 60 13.7842 60 14.3683V20.0353C60 22.2596 60 23.3717 59.5394 24.351C59.0787 25.3302 58.213 26.0585 56.4814 27.5152L49.9007 33.0512C48.1692 34.5079 47.3034 35.2362 46.8428 36.2155C46.3821 37.1947 46.3821 38.3068 46.3821 40.5311V50.5055C46.3821 52.7298 46.3821 53.8419 45.9215 54.8211C45.4609 55.8004 44.5951 56.5287 42.8636 57.9854L36.0623 63.7069C35.0936 64.5219 34.6092 64.9293 34.015 64.9918C33.4208 65.0543 32.8578 64.757 31.7318 64.1625L19.4109 57.6565C17.7891 56.8001 16.9782 56.3719 16.5308 55.6413C16.0835 54.9108 16.0835 54.0146 16.0835 52.2223V27.0972C16.0835 24.8729 16.0835 23.7608 16.5442 22.7815C17.0048 21.8023 17.8706 21.074 19.6021 19.6173L31.531 9.5821C31.8383 9.32354 31.992 9.19426 32.0101 9.0825C32.0273 8.97575 31.9859 8.86801 31.9009 8.79829C31.8118 8.7253 31.6085 8.7253 31.2018 8.7253C29.8467 8.7253 29.1691 8.7253 28.5236 8.85644C27.8956 8.984 27.2911 9.2029 26.7304 9.50573C26.1541 9.81704 25.6421 10.2478 24.6179 11.1094L16.3377 18.0752C14.561 19.5698 13.6726 20.3171 12.5955 20.7072C11.5183 21.0972 10.3428 21.0972 7.99188 21.0972H3.82319C2.02092 21.0972 1.11979 21.0972 0.559894 20.5537C0 20.0101 0 19.1353 0 17.3857V13.2458C0 11.0212 0 9.90892 0.460741 8.92959C0.921482 7.95027 1.78744 7.22193 3.51936 5.76525Z" fill="url(#paint0_radial_12974_1856)"/>
    <defs>
        <radialGradient id="paint0_radial_12974_1856" cx="0" cy="0" r="1" gradientTransform="matrix(58.6223 -42.5438 -49.0009 -64.1463 1.09744 42.6089)" gradientUnits="userSpaceOnUse">
            <stop stop-color="#FD6F8E"/>
            <stop offset="0.4" stop-color="#DE21A6"/>
            <stop offset="0.802164" stop-color="#F63CA5"/>
            <stop offset="1" stop-color="#FD6F8E"/>
        </radialGradient>
    </defs>
</svg>
